# xmcd
#
# Track frame offsets:
#	150
#	44355
#	82268
#	112853
#	134990
#	161165
#	192418
#	223523
#	236298
#	257050
#
# Disc length: 3859 seconds
#
# Revision: 1
# Processed by: cddbd v1.4PL0 Copyright (c) Steve Scherf et al.
# Submitted via: EasyCDDAExtractor 5.1.0
#
DISCID=920f110a
DTITLE=詹永明 - 華夏新聲
DYEAR=1900
DGENRE=國樂
TTITLE0=梅花引
TTITLE1=鷓鴣飛
TTITLE2=雙聲恨
TTITLE3=西湖春曉
TTITLE4=西皮花板
TTITLE5=風下空
TTITLE6=伯仲吟
TTITLE7=五梆子
TTITLE8=婺江歡歌
TTITLE9=原始狩獵圖
EXTD=
EXTT0=
EXTT1=
EXTT2=
EXTT3=
EXTT4=
EXTT5=
EXTT6=
EXTT7=
EXTT8=
EXTT9=
PLAYORDER=
